<svg id="Layer_5" enable-background="new 0 0 64 64" height="512" viewBox="0 0 64 64" width="512" xmlns="http://www.w3.org/2000/svg"><path d="m32 23h-2v6h-2v6h2v6h2v-6h2v-6h-2zm0 10h-2v-2h2z"/><path d="m40 23h-2v4h-2v6h2v8h2v-8h2v-6h-2zm0 8h-2v-2h2z"/><path d="m48 23h-2v10h-2v6h2v2h2v-2h2v-6h-2zm0 14h-2v-2h2z"/><path d="m56 23h-2v2h-2v6h2v10h2v-10h2v-6h-2zm0 6h-2v-2h2z"/><path d="m60 19h-34c-1.227 0-2.281.742-2.746 1.8-1.385-2.282-3.503-4.063-6.031-5.018 2.263-1.415 3.777-3.922 3.777-6.782 0-4.411-3.589-8-8-8s-8 3.589-8 8c0 2.86 1.514 5.367 3.777 6.782-4.536 1.714-7.777 6.089-7.777 11.218v9c0 2.757 2.243 5 5 5v18c0 2.206 1.794 4 4 4 1.2 0 2.266-.542 3-1.382.734.84 1.8 1.382 3 1.382 2.206 0 4-1.794 4-4v-18c1.13 0 2.162-.391 3-1.026v2.026c0 1.654 1.346 3 3 3h34c1.654 0 3-1.346 3-3v-20c0-1.654-1.346-3-3-3zm-45.085 4.781-1.915 2.552-1.915-2.553 1.693-6.77c.075 0 .147-.01.222-.01s.147.01.222.011zm-7.915-14.781c0-3.309 2.691-6 6-6s6 2.691 6 6-2.691 6-6 6-6-2.691-6-6zm13 30v-14h-2v34c0 1.103-.897 2-2 2s-2-.897-2-2v-22h-2v22c0 1.103-.897 2-2 2s-2-.897-2-2v-34h-2v14c-1.654 0-3-1.346-3-3v-9c0-4.702 3.266-8.646 7.646-9.709l-1.732 6.928 4.086 5.448 4.085-5.447-1.732-6.928c4.381 1.062 7.647 5.006 7.647 9.708v9c0 1.654-1.346 3-3 3zm41 3c0 .551-.449 1-1 1h-34c-.551 0-1-.449-1-1v-6-9-5c0-.551.449-1 1-1h34c.551 0 1 .449 1 1z"/><path d="m48 17h2v-8h-1.796l4.796-5.481 4.796 5.481h-1.796v4h2v-2h4.204l-9.204-10.519-9.204 10.519h4.204z"/><path d="m56 15h2v2h-2z"/><path d="m28 17h2v-8h-1.796l4.796-5.481 4.796 5.481h-1.796v4h2v-2h4.204l-9.204-10.519-9.204 10.519h4.204z"/><path d="m36 15h2v2h-2z"/><path d="m58 51h-2v4h1.796l-4.796 5.481-4.796-5.481h1.796v-8h-2v6h-4.204l9.204 10.519 9.204-10.519h-4.204z"/><path d="m56 47h2v2h-2z"/><path d="m38 51h-2v4h1.796l-4.796 5.481-4.796-5.481h1.796v-8h-2v6h-4.204l9.204 10.519 9.204-10.519h-4.204z"/><path d="m36 47h2v2h-2z"/></svg>