<?xml version="1.0"?>
<svg xmlns="http://www.w3.org/2000/svg" viewBox="0 0 512 512" width="512" height="512"><g id="outline"><path d="M128,440V428.48a27.351,27.351,0,0,0,4.422-1.747,20.944,20.944,0,0,0,0-37.466l-17.689-8.845a4.944,4.944,0,0,1,0-8.844,11.831,11.831,0,0,1,10.534,0l7.155,3.577a8,8,0,1,0,7.156-14.31l-7.155-3.578A27.458,27.458,0,0,0,128,355.519V344H112v11.52a27.351,27.351,0,0,0-4.422,1.747,20.944,20.944,0,0,0,0,37.466l17.689,8.845a4.944,4.944,0,0,1,0,8.844,11.831,11.831,0,0,1-10.534,0l-7.155-3.577a8,8,0,0,0-7.156,14.31l7.155,3.578A27.494,27.494,0,0,0,112,428.481V440Z"/><path d="M393,288.013V288H313.3l1.232-.411,24-8a8,8,0,0,0-5.06-15.178l-14.505,4.835-7-70.042a7.958,7.958,0,0,0-.268-1.4L296,142.879V130.246l22.06,5.515A7.977,7.977,0,0,0,320,136h32v8h-8a8,8,0,0,0-8,8v48a8,8,0,0,0,8,8h64a8,8,0,0,0,8-8V152a8,8,0,0,0-8-8h-8v-8a16.019,16.019,0,0,0-16-16H369.888L324.223,97.167,292.8,73.6l0,.007A7.951,7.951,0,0,0,288,72H277.132a32,32,0,1,0-42.264,0H224a7.967,7.967,0,0,0-5.12,1.855h0l-48,40A8,8,0,0,0,168,120v56a8,8,0,0,0,14.86,4.116l23.075-38.457L216,134.948v83.286l-42.53,14.177a8,8,0,0,0-5.059,10.119l8,24c.022.067.053.131.077.2l4.5,13.488a8,8,0,1,0,15.176-5.066l-2.126-6.371,56.768-21.288a8,8,0,0,0,4.576-4.414l10.521-25.25,6.4,9.137L279.938,288H120a104.162,104.162,0,0,0-16.831,1.388c-.221.019-.442.047-.661.084a103.964,103.964,0,0,0-64.774,38.777A104.2,104.2,0,0,0,22.573,428.366,100.645,100.645,0,0,0,40.962,459.6a103.419,103.419,0,0,0,61.345,34.84A99.455,99.455,0,0,0,120,496H392a104,104,0,0,0,1-207.987ZM400,192H352V160h48Zm-16-48H368v-8h16ZM256,32a16,16,0,1,1-16,16A16.019,16.019,0,0,1,256,32ZM442.861,416.01a56.475,56.475,0,0,1-10.917,16.839,8,8,0,0,0-1.827,7.69l7.734,26.544a87.717,87.717,0,0,1-14.634,7.191l-17.63-21.416a7.993,7.993,0,0,0-7.2-2.849,55.877,55.877,0,0,1-20.015-1,8,8,0,0,0-7.844,2.508L353.37,471.054a88.248,88.248,0,0,1-16.362-10.407l10.7-23.978a8,8,0,0,0-1-8.177,52.268,52.268,0,0,1-5.4-8.4,51.659,51.659,0,0,1-3.646-9.259,8,8,0,0,0-5.635-5.523L304.2,397.916c-.13-1.956-.2-3.927-.2-5.916a88.42,88.42,0,0,1,.644-10.631l28.435-3.447a8,8,0,0,0,6.425-4.872,55.846,55.846,0,0,1,10.9-16.818,8,8,0,0,0,1.865-7.647l-8.51-30.145a87.916,87.916,0,0,1,15.037-7.929L376.4,335.7a8.006,8.006,0,0,0,7.555,3.355,56.474,56.474,0,0,1,20.043,1,8,8,0,0,0,7.722-2.373l21.511-23.4a88.269,88.269,0,0,1,14.243,9.463L434.694,352.47a8,8,0,0,0,.917,8.061,55.425,55.425,0,0,1,9.182,17.956,8,8,0,0,0,5.9,5.412l29.288,6.5c.009.533.02,1.066.02,1.6a88.209,88.209,0,0,1-1.166,14.287l-29.879,4.9A8,8,0,0,0,442.861,416.01ZM330.224,329.393l5.463,19.351a71.611,71.611,0,0,0-8.987,13.835l-18.395,2.229A88.162,88.162,0,0,1,330.224,329.393ZM392,304a87.726,87.726,0,0,1,25.479,3.766l-14.5,15.775a72.213,72.213,0,0,0-16.129-.816l-11.92-17.057A88.029,88.029,0,0,1,392,304ZM324.8,448.745a87.862,87.862,0,0,1-17.674-33.5l16.592,4.409a67.173,67.173,0,0,0,3.354,7.724,66.078,66.078,0,0,0,4.14,6.994Zm153.258-75.162-19.519-4.332a70.585,70.585,0,0,0-3.274-7.464,71.311,71.311,0,0,0-4.1-6.972l8.471-19.051A87.755,87.755,0,0,1,478.055,373.583ZM316.422,111.155,334.111,120H320.985L296,113.754V96l19.2,14.4A7.958,7.958,0,0,0,316.422,111.155ZM232,88h16v32h16V88h16v48H232Zm-36.438,41.344a8,8,0,0,0-2.422,2.54L184,147.118V123.747l32-26.666v18.638Zm46.386,104.382-52.984,19.868-2.845-8.534,40.411-13.471A8,8,0,0,0,232,224V152h44Zm44.642-65.541,9.521,33.324,7.292,72.924-8.675,2.892-6.79-54.317a8.012,8.012,0,0,0-1.386-3.6l-13.361-19.067ZM93.537,308.054l-3.966,19.787a71.647,71.647,0,0,0-14.3,8.222l-17.429-6.407A87.853,87.853,0,0,1,93.537,308.054ZM46.581,402.031,34.3,411.93a87.5,87.5,0,0,1-.429-37.883l12.747,11.469a67.163,67.163,0,0,0-.533,8.4A66.041,66.041,0,0,0,46.581,402.031Zm14.557,55.388,14.24-5.642a71.668,71.668,0,0,0,14.28,8.18l3.471,15.834A87.543,87.543,0,0,1,61.138,457.419Zm49.17,22.016-5.933-27.068a8,8,0,0,0-5.114-5.817A55.83,55.83,0,0,1,81.9,436.542a8,8,0,0,0-8.126-1.339l-24.2,9.588a84.623,84.623,0,0,1-9.831-16.7l20.477-16.5a8,8,0,0,0,2.837-7.734,52.323,52.323,0,0,1-.977-9.935,51.73,51.73,0,0,1,.971-9.9,8,8,0,0,0-2.5-7.484L39.14,357.27a86.636,86.636,0,0,1,7.895-14.54l26.924,9.9a8,8,0,0,0,7.94-1.411A55.833,55.833,0,0,1,99.261,341.21a8,8,0,0,0,5.143-5.958l6.156-30.713A86.95,86.95,0,0,1,120,304c2.53,0,4.677.092,6.564.28.094.01.187.017.28.023.25.016.477.036.718.054l4.193,30.416a8,8,0,0,0,5.2,6.428,56.451,56.451,0,0,1,17.388,10.017,8,8,0,0,0,7.956,1.4l29.85-11.051a85.927,85.927,0,0,1,8.373,14.89l-24.507,19.794a8,8,0,0,0-2.855,7.6,55.447,55.447,0,0,1,0,20.166,8,8,0,0,0,2.786,7.506l23.071,19.093-1.339,2.863-.3.544a87.566,87.566,0,0,1-6.555,10.256l-28.85-9.257a8,8,0,0,0-7.623,1.52,56.49,56.49,0,0,1-17.388,10.018,8,8,0,0,0-5.13,6.013l-5.209,27.167c-2.181.169-4.374.26-6.614.26A85.516,85.516,0,0,1,110.308,479.435Zm33.819-172.077a87.143,87.143,0,0,1,36.934,21.257l-20.1,7.442a72.287,72.287,0,0,0-13.988-8.075ZM208,392a88.211,88.211,0,0,1-3,22.8l-15.4-12.748a68.67,68.67,0,0,0,.01-16.21l16.263-13.134A88.194,88.194,0,0,1,208,392Zm-28.96,65.305a87.271,87.271,0,0,1-35.574,19.513l3.246-16.928a72.265,72.265,0,0,0,14.434-8.327ZM175.485,480a104.225,104.225,0,0,0,19.572-16H224V448H207.683q1.976-3.089,3.71-6.274l.4-.72c.09-.162.174-.328.253-.5l4.08-8.72c.058-.123.112-.248.164-.373a104.5,104.5,0,0,0,1.383-75.206,101.9,101.9,0,0,0-16.464-29.205A103.9,103.9,0,0,0,175.515,304H336.637a104.787,104.787,0,0,0-19.611,16H288v16h16.4a103.891,103.891,0,0,0,32.239,144ZM369.4,477.052l10.109-11.511a71.676,71.676,0,0,0,16.438.777l10.309,12.522a88.132,88.132,0,0,1-36.856-1.788Zm82.114-20.286-4.806-16.5a72.282,72.282,0,0,0,9.057-13.988l18.5-3.033A88.3,88.3,0,0,1,451.51,456.766Z"/><path d="M416,384H405.842A15.98,15.98,0,0,0,392,376c-.089,0-.174.012-.263.013L374.86,347.884a8,8,0,1,0-13.72,8.232l16.873,28.122A15.992,15.992,0,0,0,405.842,400H416a8,8,0,0,0,0-16Z"/><rect x="224" y="320" width="16" height="16"/><rect x="256" y="320" width="16" height="16"/><rect x="272" y="448" width="16" height="16"/><rect x="240" y="448" width="16" height="16"/></g></svg>
